<svg id="Camada_1" data-name="Camada 1" xmlns="http://www.w3.org/2000/svg" xmlns:xlink="http://www.w3.org/1999/xlink" viewBox="0 0 833.75 729.17"><defs><style>.cls-1,.cls-2,.cls-3,.cls-4,.cls-6,.cls-7,.cls-8{opacity:0.95;}.cls-1{fill:url(#Gradiente_sem_nome_138);}.cls-2{fill:url(#Gradiente_sem_nome_93);}.cls-3{fill:url(#Gradiente_sem_nome_197);}.cls-4{fill:url(#Gradiente_sem_nome_128);}.cls-5{fill:url(#Gradiente_sem_nome_158);}.cls-6{fill:url(#Gradiente_sem_nome_115);}.cls-7{fill:url(#Gradiente_sem_nome_205);}.cls-8{fill:url(#Gradiente_sem_nome_170);}.cls-9{fill:#f2f2f2;}</style><linearGradient id="Gradiente_sem_nome_138" x1="499.42" y1="361.81" x2="924.2" y2="361.81" gradientTransform="translate(579.99 -425.72) rotate(53.55)" gradientUnits="userSpaceOnUse"><stop offset="0.08" stop-color="#e31962"/><stop offset="0.76" stop-color="#95093b"/></linearGradient><linearGradient id="Gradiente_sem_nome_93" x1="809" y1="216.92" x2="1058.8" y2="216.92" gradientTransform="matrix(0.31, 1.07, -0.95, 0.35, 887.58, -845.87)" gradientUnits="userSpaceOnUse"><stop offset="0" stop-color="#711abc"/><stop offset="0.97" stop-color="#9a3eff"/></linearGradient><linearGradient id="Gradiente_sem_nome_197" x1="928.79" y1="314.41" x2="1327.39" y2="314.41" gradientTransform="translate(412.88 -612.91) rotate(36.78)" gradientUnits="userSpaceOnUse"><stop offset="0" stop-color="#fea63c"/><stop offset="0.99" stop-color="#bc6c0b"/></linearGradient><linearGradient id="Gradiente_sem_nome_128" x1="567.34" y1="399.08" x2="1119.11" y2="399.08" gradientTransform="translate(219.46 -294.61) rotate(22.71)" gradientUnits="userSpaceOnUse"><stop offset="0.05" stop-color="#369bf3"/><stop offset="0.81" stop-color="#2372b7"/></linearGradient><linearGradient id="Gradiente_sem_nome_158" x1="502.43" y1="445.46" x2="805.57" y2="555.8" gradientUnits="userSpaceOnUse"><stop offset="0.38" stop-color="#b2d55f"/><stop offset="1" stop-color="#88ac33"/></linearGradient><linearGradient id="Gradiente_sem_nome_115" x1="889.69" y1="783.36" x2="889.69" y2="385.04" gradientTransform="translate(555.69 -426.38) rotate(38.42)" gradientUnits="userSpaceOnUse"><stop offset="0.12" stop-color="#148a80"/><stop offset="0.96" stop-color="#01efe0"/></linearGradient><linearGradient id="Gradiente_sem_nome_205" x1="38.25" y1="546.04" x2="12.75" y2="590.22" gradientUnits="userSpaceOnUse"><stop offset="0.06" stop-color="#e000ff"/><stop offset="0.71" stop-color="#59148a"/></linearGradient><linearGradient id="Gradiente_sem_nome_170" x1="85.68" y1="612.94" x2="131.32" y2="667.33" gradientUnits="userSpaceOnUse"><stop offset="0.15" stop-color="#011def"/><stop offset="0.95" stop-color="#00c0ff"/></linearGradient></defs><title>Logo PetHelf sem texto</title><ellipse class="cls-1" cx="711.81" cy="361.81" rx="253.49" ry="186.18" transform="translate(-495.74 665.28) rotate(-53.55)"/><ellipse class="cls-2" cx="967.89" cy="227.89" rx="177.39" ry="132.7" transform="translate(-39.82 1024.87) rotate(-72.12)"/><ellipse class="cls-3" cx="1128.09" cy="314.41" rx="220.5" ry="154.14" transform="translate(-457.3 683.93) rotate(-36.78)"/><ellipse class="cls-4" cx="843.23" cy="399.08" rx="288" ry="192" transform="translate(-582.34 302.31) rotate(-22.71)"/><ellipse class="cls-5" cx="654" cy="500.63" rx="158" ry="184"/><ellipse class="cls-6" cx="889.69" cy="584.2" rx="247.03" ry="161.93" transform="translate(-664.03 625.2) rotate(-38.42)"/><circle class="cls-7" cx="25.5" cy="568.13" r="25.5"/><circle class="cls-8" cx="108.5" cy="640.13" r="35.5"/><path class="cls-9" d="M1049.08,552.78c-37.75-66-36.93-128.06-92.11-143.48-56-12.1-82.46,43.59-145.08,84.75-73,48-89.07,103.06-71.61,136.36l4.12-8.67,5.23-9.72,4.29-8.22,10.35-16.58,6.59-10.56,6.33-9.46,4.44-6.44,2.82-4.53,2.69-4L823.88,575l-.51,4.5-1.89,17.46-1.92,15.15L818,623.28l-.75,7.92-2,10.51-1.14,9.55-.42,4c28.8-7.07,59.35-21.45,88.78-13.47l.45.12.46.11c49.24,11,74.29,78.17,122.71,75.21S1104.47,649.62,1049.08,552.78ZM866.55,544.2l-.27,1.1-.52,2.18-.53,2.19-1.88,3-1.62,1.93-2.84,2.2-3.26,1.53-7.35,1.7-8-.2-2.45.56-4.5-.5-2,1.24-3.52,2.62-1.2,2.6-.4,1.64L793,547.3l.13-.55,2-3.56,3.08-5.62,1.47-3.69,2.82-4.52,4.71-7.54,10.35-16.59,3.37-4.39,3.79-3.71s5-4,6.55,1.58l.2,6.4-.66,2.74-.27,1.09-.26,1.09.28,1.23.42.67,2,1.08,1.64.39,2.74.66,2.05,1.07,1.79,2.17,1.11,2.58,1.12,2.58.85,3.67,1.11,2.58.15,1.77,2.6,1.21,4.37,1,5.47,1.31,2.73.66,2,1.07,2.34,2.3,1.25,2,.69,1.9Z" transform="translate(-493.64 -54.18)"/><path class="cls-9" d="M810.49,458.25c32.45-15.68,42.83-73.34,23.19-128.77s-61.85-87.67-94.3-72-42.83,73.34-23.19,128.78S778.05,473.93,810.49,458.25Z" transform="translate(-493.64 -54.18)"/><ellipse class="cls-9" cx="1141.79" cy="448.7" rx="105.55" ry="65.43" transform="translate(-447.42 946.55) rotate(-48.2)"/><path class="cls-9" d="M906.72,351.38c36.61,1.61,70-48.8,74.59-112.6s-21.37-116.81-58-118.42-70,48.8-74.59,112.6S870.11,349.77,906.72,351.38Z" transform="translate(-493.64 -54.18)"/><path class="cls-9" d="M1027.17,381.2c33.34,15.71,79.75-19.39,103.65-78.4s16.27-119.59-17.07-135.3S1034,186.9,1010.1,245.91,993.84,365.5,1027.17,381.2Z" transform="translate(-493.64 -54.18)"/></svg>